<?xml version="1.0" standalone="no"?>
<!DOCTYPE svg PUBLIC "-//W3C//DTD SVG 20010904//EN"
 "http://www.w3.org/TR/2001/REC-SVG-20010904/DTD/svg10.dtd">
<svg version="1.0" xmlns="http://www.w3.org/2000/svg"
 width="600.000000pt" height="600.000000pt" viewBox="0 0 600.000000 600.000000"
 preserveAspectRatio="xMidYMid meet">

<g transform="translate(0.000000,600.000000) scale(0.100000,-0.100000)"
fill="#000000" stroke="none">
<path d="M4125 4744 c-42 -22 -63 -43 -92 -91 -24 -41 -26 -42 -46 -28 -49 34
-128 1 -143 -61 -4 -14 -15 -24 -32 -27 -21 -4 -34 3 -64 34 -92 94 -264 82
-373 -26 -41 -42 -67 -90 -90 -168 -9 -31 -20 -57 -24 -57 -20 0 -92 90 -104
130 -9 32 -19 46 -32 48 -28 4 -407 -76 -420 -89 -6 -6 -4 -25 6 -54 16 -43
16 -45 -13 -96 -15 -29 -30 -54 -31 -56 -2 -2 -18 2 -36 8 -60 21 -121 -15
-121 -72 l0 -31 -51 45 c-76 67 -150 99 -237 105 -92 6 -146 -13 -201 -73 -81
-87 -89 -214 -20 -298 30 -37 117 -88 171 -101 l28 -6 -21 -21 c-17 -17 -20
-30 -17 -64 4 -33 1 -44 -13 -53 -10 -6 -23 -30 -30 -51 -10 -34 -9 -47 5 -86
19 -48 57 -85 88 -85 11 0 23 -11 30 -27 15 -36 48 -73 64 -73 40 0 11 -25
-91 -80 -63 -33 -115 -66 -115 -73 0 -7 14 -50 32 -96 31 -80 35 -85 79 -104
44 -19 46 -22 77 -108 l31 -89 -31 -65 c-35 -75 -40 -143 -14 -193 19 -38 81
-72 129 -72 32 0 36 -3 54 -52 12 -31 30 -59 45 -68 14 -8 38 -24 54 -35 33
-23 164 -34 213 -17 22 8 97 0 334 -36 288 -44 306 -48 329 -73 33 -35 59 -42
122 -35 74 10 113 37 141 98 22 48 29 54 77 71 41 13 54 15 57 5 2 -7 17 -26
33 -42 27 -26 33 -28 96 -24 107 6 183 59 199 141 3 16 12 31 20 34 8 3 27 32
44 64 l29 59 69 0 c60 0 74 4 100 26 41 35 42 83 2 146 -16 25 -34 49 -40 52
-7 5 14 56 58 144 57 113 75 140 101 152 26 12 39 32 71 105 22 49 37 95 35
101 -3 7 -70 47 -150 89 -80 42 -146 80 -146 85 0 5 5 12 11 16 20 12 49 89
49 132 0 78 -48 154 -121 190 -23 11 -36 23 -29 27 6 4 34 -8 63 -27 45 -29
62 -33 127 -36 88 -4 150 15 150 46 0 33 -44 86 -90 110 -48 24 -120 29 -165
12 -23 -9 -30 -6 -55 20 -15 16 -35 30 -43 30 -25 0 -65 -39 -77 -75 l-11 -34
-42 19 c-23 10 -55 22 -70 25 l-28 6 27 34 c30 40 57 121 48 147 -4 14 0 18
17 18 13 0 49 7 82 17 100 28 149 93 117 154 -9 16 -5 24 26 51 40 35 64 82
64 123 0 36 -26 82 -49 90 -18 5 -19 13 -14 73 5 62 4 70 -21 99 -50 59 -130
79 -191 47z m131 -77 c33 -28 34 -67 6 -124 -23 -44 -108 -133 -152 -160 -55
-32 -29 -45 38 -18 34 15 38 15 49 -1 33 -46 -8 -111 -100 -160 l-54 -28 -28
27 -29 26 39 83 c49 106 102 204 132 245 25 34 30 48 12 37 -18 -11 -127 -162
-170 -236 -22 -37 -44 -66 -49 -63 -6 3 -7 -1 -4 -9 4 -11 0 -16 -11 -16 -9 0
-13 4 -10 10 3 5 0 7 -8 4 -32 -12 -32 124 -1 174 8 12 23 22 34 22 17 0 20
-7 20 -41 0 -32 3 -40 17 -37 11 2 24 28 40 81 13 43 28 75 33 72 5 -3 12 0
16 6 4 8 3 9 -4 5 -7 -4 -12 -1 -12 9 0 9 4 13 10 10 5 -3 7 0 4 8 -3 9 11 32
34 56 33 35 45 41 80 41 28 0 49 -7 68 -23z m-283 -95 c21 -23 7 -47 -21 -38
-12 4 -30 2 -42 -4 -24 -13 -25 -8 -5 30 18 34 44 39 68 12z m-290 -21 c42
-26 57 -58 57 -124 1 -29 7 -70 15 -92 10 -28 11 -41 3 -44 -6 -2 -28 -19 -50
-39 -48 -43 -98 -146 -133 -272 -15 -52 -28 -101 -30 -108 -3 -9 -17 -6 -50
10 l-46 23 -120 -63 c-65 -35 -119 -60 -119 -57 0 10 52 245 120 540 32 138
82 206 177 241 50 19 134 11 176 -15z m647 -81 c11 -11 20 -27 20 -36 0 -23
-38 -82 -60 -94 -26 -14 -30 -13 -30 8 0 11 -9 27 -20 37 -20 18 -20 18 18 61
20 23 40 43 45 43 4 1 16 -8 27 -19z m-510 -14 c-5 -15 -5 -26 0 -28 5 -2 7
-21 3 -43 -5 -31 -8 -35 -14 -20 -11 29 -11 73 1 96 15 27 21 24 10 -5z m-712
-33 c-2 -14 -37 -24 -167 -50 -160 -32 -180 -32 -181 -3 0 7 286 68 323 69 22
1 28 -3 25 -16z m112 -142 c0 -6 -303 -72 -328 -71 -13 0 -73 63 -73 77 0 4
71 22 158 39 l158 31 43 -35 c23 -19 42 -37 42 -41z m1047 -46 c11 -31 -64
-85 -119 -85 -19 0 -16 4 18 25 23 13 49 36 58 50 19 29 34 32 43 10z m-1046
-101 c-11 -43 -20 -71 -20 -61 -1 22 -37 23 -49 1 -8 -14 -10 -13 -15 5 -4 18
-1 21 28 21 26 0 35 5 40 21 5 14 2 25 -6 30 -11 7 -10 9 4 9 11 0 17 8 17 23
0 23 9 41 17 34 2 -2 -5 -40 -16 -83z m-13 59 c-2 -10 -10 -17 -16 -15 -7 1
-12 -2 -12 -8 0 -5 -3 -9 -7 -9 -29 5 -43 -3 -43 -25 0 -13 -7 -43 -15 -66 -8
-24 -13 -45 -10 -48 3 -3 0 -11 -5 -17 -8 -9 -6 -14 5 -19 8 -3 15 -11 15 -18
0 -9 -3 -9 -12 0 -15 15 -38 16 -38 1 0 -5 4 -7 10 -4 6 4 7 -6 3 -27 -6 -32
-6 -33 14 -15 26 23 31 22 25 -9 -3 -19 -9 -24 -23 -21 -15 4 -17 0 -13 -27 3
-25 3 -27 -5 -11 -5 11 -10 34 -10 51 -1 45 -28 128 -51 157 -11 14 -34 28
-50 32 -21 5 -32 14 -36 31 -4 14 -5 27 -2 29 5 5 237 53 261 54 13 1 17 -5
15 -16z m-853 -33 c33 -16 94 -61 136 -99 74 -68 103 -82 75 -37 -24 37 -29
95 -11 122 18 28 46 31 85 7 45 -26 70 -82 83 -190 10 -78 16 -98 29 -101 11
-2 24 10 38 38 18 35 25 41 48 38 37 -4 70 -67 88 -166 23 -130 21 -139 -30
-164 l-45 -21 -20 24 c-13 15 -19 33 -16 49 10 49 12 115 5 140 -6 21 -8 17
-19 -30 -19 -89 -23 -91 -76 -32 -40 44 -48 60 -51 100 -5 60 -17 105 -30 109
-5 2 -8 -13 -6 -34 2 -21 0 -48 -5 -61 -9 -23 -9 -23 -66 18 -71 51 -222 123
-299 143 -59 15 -81 5 -30 -14 95 -36 282 -150 331 -203 l23 -24 -21 -12 c-12
-6 -25 -8 -30 -6 -5 3 -11 -1 -15 -9 -3 -8 -32 -22 -66 -31 -33 -10 -60 -21
-60 -26 0 -14 86 -9 135 7 25 9 51 13 57 9 6 -4 8 -3 5 3 -4 6 4 15 17 21 21
9 29 5 72 -39 26 -27 46 -50 43 -52 -16 -13 -70 -28 -80 -21 -7 4 -10 3 -6 -3
7 -11 -55 -33 -91 -33 -11 0 -24 -4 -27 -10 -10 -16 123 -12 189 5 55 14 59
14 71 -2 19 -26 9 -30 -17 -7 -12 10 -18 13 -14 6 5 -8 -1 -16 -16 -21 -14 -6
-17 -10 -7 -10 8 -1 20 4 27 11 7 7 12 8 12 3 0 -14 -98 -67 -109 -61 -5 4
-11 1 -13 -5 -5 -14 -171 -13 -198 1 -23 12 -26 46 -9 84 19 41 -2 57 -65 50
-43 -5 -59 -1 -105 23 -63 32 -83 66 -50 84 15 8 24 8 32 0 14 -14 27 -14 27
0 0 5 -4 7 -10 4 -5 -3 -10 -2 -10 3 0 11 48 22 95 22 24 0 34 5 38 20 3 11 1
18 -3 15 -12 -7 -184 35 -191 47 -3 5 -9 9 -13 9 -23 -3 -36 0 -31 9 3 5 0 7
-9 4 -22 -8 -72 22 -103 62 -35 46 -37 119 -5 180 28 54 66 78 122 77 38 -1
41 1 20 8 -17 6 -2 7 45 4 51 -3 86 -13 130 -35z m490 6 c21 -21 45 -81 45
-113 0 -8 15 -13 40 -13 62 0 75 -29 74 -156 -2 -122 -18 -169 -29 -82 -15
123 -96 217 -164 191 -29 -11 -31 -10 -31 12 0 12 -7 42 -15 65 -18 51 -19 92
-3 108 19 19 57 14 83 -12z m1191 -91 c7 -40 -15 -94 -62 -152 -22 -27 -43
-43 -57 -43 -14 0 -18 3 -10 8 31 20 87 125 98 185 6 29 3 43 -11 60 -16 19
-15 19 8 -2 15 -13 30 -39 34 -56z m-853 -35 c-5 -19 -23 -29 -23 -12 0 7 20
32 26 32 1 0 0 -9 -3 -20z m-32 -32 c1 -18 5 -44 10 -58 7 -19 8 -15 4 20 -2
28 -1 38 4 25 7 -16 9 -14 14 15 4 18 9 31 12 29 2 -3 -11 -71 -28 -153 l-33
-148 -48 -25 -48 -24 8 33 c4 18 10 58 14 88 7 53 7 53 9 13 1 -39 12 -56 24
-35 2 4 2 1 0 -7 -3 -14 14 -41 27 -41 4 0 6 13 5 30 -1 17 2 27 8 23 6 -4 7
4 3 20 -3 14 -2 27 4 29 12 4 21 78 9 78 -5 0 -9 11 -9 25 0 14 -6 34 -12 45
-11 17 -10 22 1 29 11 7 10 10 -5 14 -16 4 -16 5 4 6 18 1 22 -4 23 -31z
m1099 -133 c0 -18 -40 -75 -51 -75 -5 0 -3 13 2 30 6 17 16 27 22 23 6 -3 7
-1 3 5 -8 14 0 32 15 32 5 0 9 -7 9 -15z m-1135 -14 c3 -5 1 -12 -5 -16 -5 -3
-10 1 -10 9 0 18 6 21 15 7z m1391 -36 c33 -26 35 -29 18 -36 -31 -12 -127 -9
-159 6 l-30 13 40 1 c22 0 57 -3 78 -8 52 -12 56 4 5 23 -24 8 -56 19 -73 25
-26 10 -23 11 27 8 44 -3 65 -10 94 -32z m-471 -294 c296 -159 541 -293 543
-299 1 -5 -8 -34 -22 -65 l-24 -55 -173 89 c-96 49 -333 169 -526 267 l-353
177 0 88 c0 48 3 87 8 87 4 0 250 -130 547 -289z m211 197 c60 -28 104 -87
104 -140 0 -44 -19 -97 -43 -116 -30 -25 -35 -3 -11 45 29 57 30 75 3 130 -16
32 -35 52 -73 73 -59 35 -47 40 20 8z m-1925 -173 c32 -6 37 -11 49 -53 7 -26
14 -50 14 -54 1 -5 3 -8 6 -7 3 0 23 -6 45 -14 22 -9 49 -17 60 -19 33 -6 -73
-38 -126 -38 -53 0 -66 11 -71 60 -3 33 -5 35 -47 41 -51 7 -81 36 -81 79 0
16 7 35 15 44 13 13 20 12 58 -9 23 -13 58 -26 78 -30z m1226 -47 c-3 -7 -5
-2 -5 12 0 14 2 19 5 13 2 -7 2 -19 0 -25z m20 -20 c-3 -8 -6 -5 -6 6 -1 11 2
17 5 13 3 -3 4 -12 1 -19z m20 0 c-3 -8 -6 -5 -6 6 -1 11 2 17 5 13 3 -3 4
-12 1 -19z m103 -22 c0 -2 -15 2 -34 8 -19 6 -32 14 -30 18 5 7 64 -17 64 -26z
m-28 -19 c15 0 25 -3 23 -7 -3 -4 9 -13 25 -20 23 -9 33 -10 44 -1 10 9 20 9
40 0 24 -11 27 -29 5 -29 -6 0 -8 4 -5 9 7 11 -22 23 -36 14 -6 -3 15 -19 47
-34 32 -15 63 -25 68 -22 5 3 3 10 -4 15 -11 8 -11 9 1 5 8 -2 13 -12 12 -22
-3 -16 -1 -17 12 -6 18 15 37 6 30 -13 -8 -21 315 -179 333 -164 11 8 12 7 7
-8 -6 -15 -4 -17 6 -7 14 13 43 6 34 -8 -3 -5 -10 -7 -15 -4 -5 4 -9 3 -9 0 0
-3 24 -18 53 -32 28 -13 65 -32 81 -40 24 -13 30 -13 38 -2 29 42 -15 -55 -89
-197 -70 -135 -87 -161 -103 -157 -17 5 -15 13 27 101 75 161 77 168 63 201
-6 16 -21 38 -32 48 -26 23 -90 23 -116 0 -11 -10 -41 -78 -67 -152 -35 -99
-50 -132 -61 -128 -19 7 -19 9 22 160 42 156 41 186 -12 232 -26 23 -45 31
-73 31 -62 0 -76 -25 -100 -170 -30 -180 -27 -171 -54 -161 -25 9 -25 17 -7
234 10 113 6 137 -31 189 -24 33 -87 68 -124 68 -14 0 -37 -11 -51 -25 l-25
-25 7 -165 c4 -91 4 -165 1 -165 -11 0 -57 23 -58 29 -16 193 -24 427 -15 434
6 4 27 4 46 0 19 -4 47 -7 62 -6z m-396 -187 c-1 -33 -2 -60 -4 -60 -19 0 -42
26 -42 47 0 20 33 73 45 73 1 0 2 -27 1 -60z m738 52 c2 -4 -4 -8 -14 -8 -10
0 -16 4 -14 8 3 4 9 8 14 8 5 0 11 -4 14 -8z m-219 -63 c15 -27 15 -48 5 -182
-7 -84 -13 -153 -14 -154 -1 -2 -11 3 -21 10 -16 13 -17 21 -6 123 6 60 11
137 11 172 0 34 2 62 5 62 2 0 12 -14 20 -31z m299 23 c3 -5 -1 -9 -9 -9 -8 0
-15 4 -15 9 0 4 4 8 9 8 6 0 12 -4 15 -8z m-1107 -196 c12 -96 58 -364 69
-399 5 -15 1 -18 -17 -15 -22 3 -25 14 -64 239 -29 169 -38 243 -31 258 17 40
30 15 43 -83z m1353 64 c0 -5 -5 -10 -11 -10 -5 0 -7 5 -4 10 3 6 8 10 11 10
2 0 4 -4 4 -10z m35 -18 c-3 -3 -11 0 -18 7 -9 10 -8 11 6 5 10 -3 15 -9 12
-12z m-295 -29 c0 -32 -59 -254 -71 -268 -6 -5 -13 -5 -20 2 -8 8 -1 44 24
129 19 66 38 132 41 147 8 33 26 26 26 -10z m364 -12 c-2 -3 -12 3 -22 13 -16
17 -16 18 5 5 12 -7 20 -15 17 -18z m-1644 -389 c0 -9 -5 -10 -18 -3 -12 6
-28 54 -55 164 -33 134 -37 158 -26 179 12 21 17 7 56 -152 23 -96 42 -181 43
-188z m1507 312 c8 -22 -107 -268 -120 -255 -7 7 7 47 41 120 29 61 52 120 52
131 0 24 18 27 27 4z m-1013 -56 c9 -12 16 -40 16 -61 0 -34 -3 -38 -22 -35
-20 3 -23 10 -26 61 -3 61 7 72 32 35z m329 -169 c13 -6 28 -23 34 -39 6 -16
26 -38 44 -50 33 -20 55 -21 120 -5 22 6 32 0 62 -31 33 -35 39 -37 90 -36 43
1 61 -4 87 -23 19 -14 46 -25 61 -25 32 0 79 -19 79 -32 0 -5 -7 -22 -15 -37
l-14 -29 -148 39 c-82 22 -210 56 -285 76 l-138 36 0 46 c0 25 -3 63 -6 84 -7
41 -6 42 29 26z m-1040 -152 c-8 -14 -19 5 -38 61 -14 44 -15 55 -3 69 11 14
15 7 29 -53 9 -38 14 -73 12 -77z m678 63 c20 -11 27 -64 9 -75 -5 -3 -10 -11
-10 -16 0 -6 5 -7 11 -3 8 4 8 0 0 -15 -16 -29 -58 -38 -79 -16 -16 16 -16 17
6 6 16 -8 28 -9 42 -1 28 15 25 20 -9 14 -23 -5 -32 -2 -40 15 -15 27 -4 68
22 86 25 18 23 18 48 5z m1128 -34 c-2 -2 -13 8 -23 22 l-19 27 24 -22 c12
-12 21 -24 18 -27z m3 -58 c-6 -6 -7 0 -4 19 5 21 7 23 10 9 2 -10 0 -22 -6
-28z m-1704 -106 c4 -43 -22 -74 -57 -70 -21 2 -27 9 -29 36 -4 43 22 74 57
70 21 -2 27 -9 29 -36z m-13 -82 c-22 -25 -58 -26 -76 -2 -11 14 -11 15 1 5
19 -18 55 -16 70 2 7 8 15 15 18 15 3 0 -3 -9 -13 -20z"/>
<path d="M4176 4658 c3 -5 10 -6 15 -3 13 9 11 12 -6 12 -8 0 -12 -4 -9 -9z"/>
<path d="M4050 4499 c0 -5 5 -7 10 -4 6 3 10 8 10 11 0 2 -4 4 -10 4 -5 0 -10
-5 -10 -11z"/>
<path d="M4040 4469 c0 -5 5 -7 10 -4 6 3 10 8 10 11 0 2 -4 4 -10 4 -5 0 -10
-5 -10 -11z"/>
<path d="M3475 3945 l-30 -25 33 0 c28 0 32 3 32 25 0 30 2 30 -35 0z"/>
<path d="M3148 4183 c7 -3 16 -2 19 1 4 3 -2 6 -13 5 -11 0 -14 -3 -6 -6z"/>
<path d="M2032 4040 c0 -14 2 -19 5 -12 2 6 2 18 0 25 -3 6 -5 1 -5 -13z"/>
<path d="M2070 3915 c13 -14 26 -25 28 -25 3 0 -5 11 -18 25 -13 14 -26 25
-28 25 -3 0 5 -11 18 -25z"/>
<path d="M2455 3580 c-3 -5 -1 -10 4 -10 6 0 11 5 11 10 0 6 -2 10 -4 10 -3 0
-8 -4 -11 -10z"/>
<path d="M3058 3740 c-5 -33 0 -36 26 -17 16 12 16 14 -2 30 -19 17 -20 17
-24 -13z"/>
<path d="M2430 3399 c0 -5 5 -7 10 -4 6 3 10 8 10 11 0 2 -4 4 -10 4 -5 0 -10
-5 -10 -11z"/>
<path d="M2130 2806 c-148 -52 -274 -116 -228 -116 20 0 197 64 247 90 38 19
57 37 49 45 -2 2 -33 -6 -68 -19z"/>
<path d="M2156 1289 c-9 -44 -7 -56 4 -39 9 13 11 13 20 0 8 -12 10 -12 10 5
0 29 -11 65 -20 65 -4 0 -10 -14 -14 -31z"/>
<path d="M2240 1280 c0 -35 3 -40 23 -39 12 0 16 3 10 6 -7 2 -13 20 -13 39 0
19 -4 34 -10 34 -5 0 -10 -18 -10 -40z"/>
<path d="M2327 1285 c3 -22 7 -42 9 -44 7 -7 25 53 21 68 -4 13 -5 13 -6 -1 0
-10 -5 -18 -10 -18 -5 0 -12 8 -15 18 -2 9 -2 -1 1 -23z"/>
<path d="M2372 1295 c-14 -31 -15 -55 -3 -55 7 0 22 70 16 78 -1 1 -7 -9 -13
-23z"/>
<path d="M2447 1304 c-3 -10 -9 -30 -13 -44 -6 -21 -5 -23 8 -13 11 10 17 10
27 0 10 -10 11 -6 5 18 -11 48 -21 62 -27 39z"/>
<path d="M2533 1281 c12 -43 12 -43 18 -14 3 16 9 35 13 41 4 7 2 12 -3 12 -6
0 -11 -8 -11 -17 0 -15 -2 -14 -14 3 -13 17 -13 14 -3 -25z"/>
<path d="M2615 1309 c-4 -5 0 -18 9 -28 21 -23 20 -32 -1 -24 -11 4 -14 3 -9
-5 8 -14 32 -16 40 -3 3 5 -4 21 -16 37 -18 23 -19 27 -5 21 9 -3 17 -2 17 3
0 13 -27 13 -35 -1z"/>
<path d="M2771 1278 c1 -24 4 -33 6 -20 2 12 10 22 16 22 7 0 6 4 -3 10 -13 9
-13 11 0 20 13 8 12 10 -2 10 -15 0 -18 -8 -17 -42z"/>
<path d="M2851 1278 c1 -28 3 -34 6 -18 l5 24 13 -24 c12 -22 13 -22 13 18 1
35 -2 42 -19 42 -16 0 -19 -7 -18 -42z m29 22 c0 -5 -4 -10 -10 -10 -5 0 -10
5 -10 10 0 6 5 10 10 10 6 0 10 -4 10 -10z"/>
<path d="M2940 1280 c0 -35 3 -40 23 -40 14 0 18 3 10 8 -14 9 -13 54 2 64 5
4 0 8 -12 8 -20 0 -23 -5 -23 -40z"/>
<path d="M3026 1311 c-3 -4 1 -17 9 -27 17 -22 19 -38 5 -29 -5 3 -10 1 -10
-4 0 -14 27 -14 35 0 4 5 0 18 -9 28 -21 23 -20 32 1 24 11 -4 14 -3 9 5 -8
14 -32 16 -40 3z"/>
<path d="M3123 1280 c0 -25 2 -35 4 -22 2 12 8 22 13 22 5 0 11 -10 13 -22 2
-13 4 -3 4 22 1 25 -1 37 -4 28 -2 -10 -8 -18 -13 -18 -5 0 -11 8 -13 18 -3 9
-5 -3 -4 -28z"/>
<path d="M3286 1298 c-3 -13 -6 -32 -6 -43 0 -17 2 -17 10 -5 9 13 11 13 21 0
8 -11 9 -7 5 19 -3 18 -6 37 -6 42 0 18 -18 8 -24 -13z"/>
<path d="M3378 1280 c2 -22 5 -40 7 -40 2 0 5 18 7 40 2 24 -1 40 -7 40 -6 0
-9 -16 -7 -40z"/>
<path d="M3523 1280 c0 -25 2 -35 4 -22 2 12 8 22 13 22 5 0 11 -10 13 -22 2
-13 4 -3 4 22 1 25 -1 37 -4 28 -2 -10 -8 -18 -13 -18 -5 0 -11 8 -13 18 -3 9
-5 -3 -4 -28z"/>
<path d="M3614 1306 c-11 -28 0 -61 21 -61 16 0 20 7 20 35 0 25 -5 36 -18 38
-9 2 -20 -3 -23 -12z m36 -20 c0 -14 -4 -28 -10 -31 -6 -4 -10 7 -10 24 0 17
5 31 10 31 6 0 10 -11 10 -24z"/>
<path d="M3711 1278 c0 -33 2 -38 9 -23 12 28 12 65 0 65 -5 0 -10 -19 -9 -42z"/>
<path d="M3751 1298 c0 -13 4 -32 9 -43 7 -15 9 -9 7 22 -1 24 -5 43 -9 43 -5
0 -8 -10 -7 -22z"/>
<path d="M3820 1280 c0 -32 4 -40 18 -39 10 0 12 3 5 6 -7 2 -13 11 -13 19 0
8 6 14 13 14 8 0 7 4 -3 10 -13 9 -13 11 0 20 13 8 12 10 -2 10 -14 0 -18 -9
-18 -40z"/>
<path d="M3730 1255 c0 -8 2 -15 4 -15 2 0 6 7 10 15 3 8 1 15 -4 15 -6 0 -10
-7 -10 -15z"/>
</g>
</svg>
